<svg xmlns="http://www.w3.org/2000/svg" width="1280" height="720" viewBox="0 0 1280 720">
  <rect width="1280" height="720" fill="#f8fafc"/>
  <rect x="0" y="0" width="290" height="720" fill="#1e293b"/>
  <text x="30" y="60" font-family="Arial" font-size="28" fill="#e2e8f0">TALASH</text>
  <text x="30" y="120" font-family="Arial" font-size="20" fill="#cbd5e1">Dashboard</text>
  <text x="30" y="160" font-family="Arial" font-size="20" fill="#94a3b8">Candidates</text>
  <text x="30" y="200" font-family="Arial" font-size="20" fill="#94a3b8">Reports</text>

  <rect x="320" y="35" width="920" height="90" rx="12" fill="#0f172a"/>
  <text x="360" y="88" font-family="Arial" font-size="30" fill="#e2e8f0">Candidate Summary Dashboard</text>

  <rect x="320" y="160" width="280" height="140" rx="12" fill="#ffffff" stroke="#cbd5e1"/>
  <text x="350" y="210" font-family="Arial" font-size="20" fill="#334155">Total CVs</text>
  <text x="350" y="260" font-family="Arial" font-size="44" fill="#0f172a">42</text>

  <rect x="640" y="160" width="280" height="140" rx="12" fill="#ffffff" stroke="#cbd5e1"/>
  <text x="670" y="210" font-family="Arial" font-size="20" fill="#334155">Parsed OK</text>
  <text x="670" y="260" font-family="Arial" font-size="44" fill="#0f172a">37</text>

  <rect x="960" y="160" width="280" height="140" rx="12" fill="#ffffff" stroke="#cbd5e1"/>
  <text x="990" y="210" font-family="Arial" font-size="20" fill="#334155">Needs Info</text>
  <text x="990" y="260" font-family="Arial" font-size="44" fill="#0f172a">5</text>

  <rect x="320" y="330" width="590" height="340" rx="12" fill="#ffffff" stroke="#cbd5e1"/>
  <text x="350" y="375" font-family="Arial" font-size="22" fill="#334155">Completeness by Section</text>
  <rect x="360" y="420" width="500" height="28" rx="8" fill="#e2e8f0"/>
  <rect x="360" y="420" width="420" height="28" rx="8" fill="#0ea5e9"/>
  <rect x="360" y="470" width="500" height="28" rx="8" fill="#e2e8f0"/>
  <rect x="360" y="470" width="360" height="28" rx="8" fill="#14b8a6"/>
  <rect x="360" y="520" width="500" height="28" rx="8" fill="#e2e8f0"/>
  <rect x="360" y="520" width="300" height="28" rx="8" fill="#f97316"/>

  <rect x="930" y="330" width="310" height="340" rx="12" fill="#ffffff" stroke="#cbd5e1"/>
  <text x="955" y="375" font-family="Arial" font-size="22" fill="#334155">Top Alerts</text>
  <text x="955" y="420" font-family="Arial" font-size="18" fill="#475569">- Missing publication year</text>
  <text x="955" y="455" font-family="Arial" font-size="18" fill="#475569">- Incomplete experience dates</text>
  <text x="955" y="490" font-family="Arial" font-size="18" fill="#475569">- Supervision details absent</text>
</svg>
